<svg xmlns="http://www.w3.org/2000/svg"><defs><pattern id="a" width="80" height="80" patternTransform="rotate(85)scale(5)" patternUnits="userSpaceOnUse"><rect width="100%" height="100%" fill="#921c0c"/><path fill="#f6aa1e" d="M13.04-1.76 8.32 0l4.72 1.76L17.76 0zm13.92 0L22.24 0l4.72 1.76L31.68 0zm26.08 0L48.32 0l4.72 1.76L57.76 0zm13.92 0L62.24 0l4.72 1.76L71.68 0zM20-.8c-.48 0-.8.32-.8.8s.32.8.8.8.8-.32.8-.8-.32-.8-.8-.8m40 0c-.48 0-.8.32-.8.8s.32.8.8.8.8-.32.8-.8-.32-.8-.8-.8M18.48 1.52l-4.56 2.16-2.16 4.56 4.56-2.16zm3.12 0 2.16 4.56 4.56 2.16-2.16-4.56zm36.88 0-4.56 2.16-2.16 4.56 4.56-2.16zm3.12 0 2.16 4.56 4.56 2.16-2.16-4.56zM20 2.24l-1.76 4.72L20 11.68l1.76-4.72zm40 0-1.76 4.72L60 11.68l1.76-4.72zM0 28.32l-1.76 4.72L0 37.76l1.76-4.72zm40 0-1.76 4.72L40 37.76l1.76-4.72zm40 0-1.76 4.72L80 37.76l1.76-4.72zM8.32 31.68l-4.56 2.16L1.6 38.4l4.56-2.16zm23.44 0 2.16 4.56 4.56 2.16-2.16-4.56zm16.56 0-4.56 2.16-2.16 4.56 4.56-2.16zm23.44 0 2.16 4.56 4.56 2.16-2.16-4.56zm-64.8 6.56L2.24 40l4.72 1.76L11.68 40zm26.08 0L28.32 40l4.72 1.76L37.76 40zm13.92 0L42.24 40l4.72 1.76L51.68 40zm26.08 0L68.32 40l4.72 1.76L77.76 40zM0 39.2c-.48 0-.8.32-.8.8s.32.8.8.8.8-.32.8-.8-.32-.8-.8-.8m40 0c-.48 0-.8.32-.8.8s.32.8.8.8.8-.32.8-.8-.32-.8-.8-.8m40 0c-.48 0-.8.32-.8.8s.32.8.8.8.8-.32.8-.8-.32-.8-.8-.8M1.6 41.52l2.16 4.56 4.56 2.16-2.16-4.56zm36.88 0-4.56 2.16-2.16 4.56 4.56-2.16zm3.12 0 2.16 4.56 4.56 2.16-2.16-4.56zm36.88 0-4.56 2.16-2.16 4.56 4.56-2.16zM0 42.24l-1.76 4.72L0 51.68l1.76-4.72zm40 0-1.76 4.72L40 51.68l1.76-4.72zm40 0-1.76 4.72L80 51.68l1.76-4.72zM20 68.32l-1.76 4.72L20 77.76l1.76-4.72zm40 0-1.76 4.72L60 77.76l1.76-4.72zm-48.24 3.36 2.16 4.56 4.56 2.16-2.16-4.56zm16.56 0-4.56 2.16-2.16 4.56 4.56-2.16zm23.44 0 2.16 4.56 4.56 2.16-2.16-4.56zm16.56 0-4.56 2.16-2.16 4.56 4.56-2.16zm-55.28 6.56L8.32 80l4.72 1.76L17.76 80zm13.92 0L22.24 80l4.72 1.76L31.68 80zm26.08 0L48.32 80l4.72 1.76L57.76 80zm13.92 0L62.24 80l4.72 1.76L71.68 80zM20 79.2c-.48 0-.8.32-.8.8s.32.8.8.8.8-.32.8-.8-.32-.8-.8-.8m40 0c-.48 0-.8.32-.8.8s.32.8.8.8.8-.32.8-.8-.32-.8-.8-.8"/><path fill="#230901" d="M.8 16.64a.8.8 0 0 1-.8.8.8.8 0 0 1-.8-.8.8.8 0 0 1 .8-.8.8.8 0 0 1 .8.8m80 0a.8.8 0 0 1-.8.8.8.8 0 0 1-.8-.8.8.8 0 0 1 .8-.8.8.8 0 0 1 .8.8m-40 46.72a.8.8 0 0 1-.8.8.8.8 0 0 1-.8-.8.8.8 0 0 1 .8-.8.8.8 0 0 1 .8.8m-40 0a.8.8 0 0 1-.8.8.8.8 0 0 1-.8-.8.8.8 0 0 1 .8-.8.8.8 0 0 1 .8.8m80 0a.8.8 0 0 1-.8.8.8.8 0 0 1-.8-.8.8.8 0 0 1 .8-.8.8.8 0 0 1 .8.8m-20-6.72a.8.8 0 0 1-.8.8.8.8 0 0 1-.8-.8.8.8 0 0 1 .8-.8.8.8 0 0 1 .8.8m0-33.28a.8.8 0 0 1-.8.8.8.8 0 0 1-.8-.8.8.8 0 0 1 .8-.8.8.8 0 0 1 .8.8m-20-6.72a.8.8 0 0 1-.8.8.8.8 0 0 1-.8-.8.8.8 0 0 1 .8-.8.8.8 0 0 1 .8.8M2.08 7.36a.64.64 0 1 0 0 1.28.64.64 0 0 0 0-1.28m34.72 0a.64.64 0 1 0 0 1.28.64.64 0 0 0 0-1.28m5.28 0a.64.64 0 1 0 0 1.28.64.64 0 0 0 0-1.28m34.72 0a.64.64 0 1 0 0 1.28.64.64 0 0 0 0-1.28M4.48 9.76a.64.64 0 1 0 0 1.28.64.64 0 0 0 0-1.28m29.92 0a.64.64 0 1 0 0 1.28.64.64 0 0 0 0-1.28m10.08 0a.64.64 0 1 0 0 1.28.64.64 0 0 0 0-1.28m29.92 0a.64.64 0 1 0 0 1.28.64.64 0 0 0 0-1.28m-67.52 2.4a.64.64 0 1 0 0 1.28.64.64 0 0 0 0-1.28m25.12 0a.64.64 0 1 0 0 1.28.64.64 0 0 0 0-1.28m14.88 0a.64.64 0 1 0 0 1.28.64.64 0 0 0 0-1.28m25.12 0a.64.64 0 1 0 0 1.28.64.64 0 0 0 0-1.28M3.36 19.2a.8.8 0 0 0-.8.8c0 .4.4.8.8.8a.8.8 0 0 0 0-1.6m13.28 0a.8.8 0 0 0 0 1.6c.4 0 .8-.32.8-.8 0-.4-.4-.8-.8-.8m6.72 0a.8.8 0 0 0 0 1.6.8.8 0 0 0 0-1.6m13.28 0a.8.8 0 0 0 0 1.6.8.8 0 0 0 0-1.6m6.72 0a.8.8 0 0 0-.8.8c0 .4.4.8.8.8a.8.8 0 0 0 0-1.6m13.28 0a.8.8 0 0 0 0 1.6c.4 0 .8-.32.8-.8 0-.4-.4-.8-.8-.8m6.72 0a.8.8 0 0 0 0 1.6.8.8 0 0 0 0-1.6m13.28 0a.8.8 0 0 0 0 1.6.8.8 0 0 0 0-1.6M12 26.56a.64.64 0 1 0 0 1.28.64.64 0 0 0 0-1.28m14.88 0a.64.64 0 1 0 0 1.28.64.64 0 0 0 0-1.28m25.12 0a.64.64 0 1 0 0 1.28.64.64 0 0 0 0-1.28m14.88 0a.64.64 0 1 0 0 1.28.64.64 0 0 0 0-1.28m-52.48 2.4a.64.64 0 1 0 0 1.28.64.64 0 0 0 0-1.28m10.08 0a.64.64 0 1 0 0 1.28.64.64 0 0 0 0-1.28m29.92 0a.64.64 0 1 0 0 1.28.64.64 0 0 0 0-1.28m10.08 0a.64.64 0 1 0 0 1.28.64.64 0 0 0 0-1.28m-47.68 2.4a.64.64 0 1 0 0 1.28.64.64 0 0 0 0-1.28m5.28 0a.64.64 0 1 0 0 1.28.64.64 0 0 0 0-1.28m34.72 0a.64.64 0 1 0 0 1.28.64.64 0 0 0 0-1.28m5.28 0a.64.64 0 1 0 0 1.28.64.64 0 0 0 0-1.28m-45.28 16a.64.64 0 1 0 0 1.28.64.64 0 0 0 0-1.28m5.28 0a.64.64 0 1 0 0 1.28.64.64 0 0 0 0-1.28m34.72 0a.64.64 0 1 0 0 1.28.64.64 0 0 0 0-1.28m5.28 0a.64.64 0 1 0 0 1.28.64.64 0 0 0 0-1.28m-47.68 2.4a.64.64 0 1 0 0 1.28.64.64 0 0 0 0-1.28m10.08 0a.64.64 0 1 0 0 1.28.64.64 0 0 0 0-1.28m29.92 0a.64.64 0 1 0 0 1.28.64.64 0 0 0 0-1.28m10.08 0a.64.64 0 1 0 0 1.28.64.64 0 0 0 0-1.28M12 52.16a.64.64 0 1 0 0 1.28.64.64 0 0 0 0-1.28m14.88 0a.64.64 0 1 0 0 1.28.64.64 0 0 0 0-1.28m25.12 0a.64.64 0 1 0 0 1.28.64.64 0 0 0 0-1.28m14.88 0a.64.64 0 1 0 0 1.28.64.64 0 0 0 0-1.28M20 55.84a.8.8 0 0 0 0 1.6c.4 0 .8-.32.8-.8a.8.8 0 0 0-.8-.8M3.36 59.2a.8.8 0 0 0 0 1.6.8.8 0 0 0 0-1.6m13.28 0a.8.8 0 0 0 0 1.6.8.8 0 0 0 0-1.6m6.72 0a.8.8 0 0 0-.8.8c0 .4.4.8.8.8a.8.8 0 0 0 0-1.6m13.28 0a.8.8 0 0 0 0 1.6c.4 0 .8-.32.8-.8 0-.4-.4-.8-.8-.8m6.72 0a.8.8 0 0 0 0 1.6.8.8 0 0 0 0-1.6m13.28 0a.8.8 0 0 0 0 1.6.8.8 0 0 0 0-1.6m6.72 0a.8.8 0 0 0-.8.8c0 .4.4.8.8.8a.8.8 0 0 0 0-1.6m13.28 0a.8.8 0 0 0 0 1.6c.4 0 .8-.32.8-.8 0-.4-.4-.8-.8-.8M6.88 66.56a.64.64 0 1 0 0 1.28.64.64 0 0 0 0-1.28m25.12 0a.64.64 0 1 0 0 1.28.64.64 0 0 0 0-1.28m14.88 0a.64.64 0 1 0 0 1.28.64.64 0 0 0 0-1.28m25.12 0a.64.64 0 1 0 0 1.28.64.64 0 0 0 0-1.28m-67.52 2.4a.64.64 0 1 0 0 1.28.64.64 0 0 0 0-1.28m29.92 0a.64.64 0 1 0 0 1.28.64.64 0 0 0 0-1.28m10.08 0a.64.64 0 1 0 0 1.28.64.64 0 0 0 0-1.28m29.92 0a.64.64 0 1 0 0 1.28.64.64 0 0 0 0-1.28m-72.32 2.4a.64.64 0 1 0 0 1.28.64.64 0 0 0 0-1.28m34.72 0a.64.64 0 1 0 0 1.28.64.64 0 0 0 0-1.28m5.28 0a.64.64 0 1 0 0 1.28.64.64 0 0 0 0-1.28m34.72 0a.64.64 0 1 0 0 1.28.64.64 0 0 0 0-1.28m-56-48a.8.8 0 0 1-.8.8.8.8 0 0 1-.8-.8.8.8 0 0 1 .8-.8.8.8 0 0 1 .8.8"/></pattern></defs><rect width="800%" height="800%" fill="url(#a)" transform="translate(-170 -360)"/></svg>