<svg xmlns="http://www.w3.org/2000/svg"><defs><pattern id="a" width="89" height="83" patternTransform="rotate(120)scale(4)" patternUnits="userSpaceOnUse"><rect width="100%" height="100%" fill="#250047"/><path fill="#3c096d" d="M4.5 0v40h40V0zm40 40v40h40V40zM8.5 4h32v32h-32zm4 4v24h24V8zm4 4h16v16h-16zm4.043 3.988v8.004h8.004v-8.004zM48.5 44h32v32h-32zm4 4v24h24V48zm4 4h16v16h-16zm4.043 3.984v8.006h8.004v-8.006z"/><path fill="#7a2bbf" d="M48.5 4v32h32V4zm4 4h24v24h-24zm4 4v16h16V12zm4 4h8v8h-8zm-52 28v32h32V44zm4 4h24v24h-24zm4 4v16h16V52zm4 4h8v8h-8z"/></pattern></defs><rect width="800%" height="800%" fill="url(#a)" transform="translate(-316 -572)"/></svg>